<svg width="1605" height="258" viewBox="0 0 1605 258" fill="none" xmlns="http://www.w3.org/2000/svg">
<path d="M1571.45 45.1824L1605 18.3942V258H-1.32083L-1.32084 175L-1.32084 5.00006C-1.32085 -10.0985 17.5524 13.9295 17.5524 18.3942V33.2765L53.2018 40.7177L74.172 49.6471L93.0453 66.0177L116.113 89.8295L147.568 97.2706L191.605 104.712L231.449 97.2706L265.001 113.641L298.554 119.594L330.009 127.035L367.755 143.406L392.92 134.477H426.472H464.219L472.607 156.8L497.771 167.218L525.032 150.847H566.973H600.525L640.369 143.406L659.242 150.847H696.988L734.735 156.8H753.608L795.548 143.406H814.422L852.168 156.8L868.944 143.406H910.885H923.467H957.019V119.594H980.087L994.766 113.641H1013.64H1045.09L1022.03 97.2706V89.8295L1084.94 97.2706L1108.01 104.712L1128.98 97.2706L1147.85 113.641L1170.92 104.712L1189.79 113.641L1229.63 127.035L1265.28 119.594H1300.93L1332.39 134.477L1347.07 119.594C1347.07 116.122 1352.94 106.795 1376.42 97.2706C1399.91 87.7459 1404.38 82.3883 1403.69 80.9001L1430.95 63.0412H1445.63L1460.31 45.1824H1474.98L1544.19 31.7883C1562.64 28.2165 1570.05 39.2295 1571.45 45.1824Z" fill="black"/>
</svg>
