<svg width="43" height="43" viewBox="0 0 43 43" fill="none" xmlns="http://www.w3.org/2000/svg">
<path opacity="0.4" d="M25.3827 15.8328V21.8269H30.7266C31.1126 21.8269 31.3971 22.1723 31.3158 22.5584L30.5437 26.419C30.4827 26.7034 30.2389 26.9066 29.9545 26.9066H25.3827V41.6378H19.287V26.9066H15.8328C15.4874 26.9066 15.2232 26.6425 15.2232 26.297V22.4365C15.2232 22.091 15.4874 21.8269 15.8328 21.8269H19.287V15.2232C19.287 11.8503 22.0098 9.12756 25.3827 9.12756H30.8688C31.2142 9.12756 31.4784 9.39169 31.4784 9.73711V14.6137C31.4784 14.9591 31.2142 15.2232 30.8688 15.2232H25.9923C25.6468 15.2232 25.3827 15.4874 25.3827 15.8328Z" stroke="white" stroke-miterlimit="10" stroke-linecap="round"/>
<path d="M27.4146 41.6378H15.2232C5.06378 41.6378 1 37.5741 1 27.4146V15.2232C1 5.06378 5.06378 1 15.2232 1H27.4146C37.5741 1 41.6378 5.06378 41.6378 15.2232V27.4146C41.6378 37.5741 37.5741 41.6378 27.4146 41.6378Z" stroke="white" stroke-linecap="round" stroke-linejoin="round"/>
</svg>
