<svg width="1625" height="355" viewBox="0 0 1625 355" fill="none" xmlns="http://www.w3.org/2000/svg">
<path d="M35.1221 125.05L1.28246 151.903L1.28249 354L1623.82 354L1623.82 162.217C1608.57 162.246 1604.74 153.324 1604.73 148.859L1604.7 133.977L1568.68 126.604L1547.48 117.715L1528.38 101.381L1505.04 77.6131L1473.25 70.2322L1428.76 62.8755L1388.53 70.3931L1354.6 54.0868L1320.7 48.1982L1288.92 40.8174L1250.76 24.5191L1225.36 33.4968L1191.47 33.5611L1153.34 33.6335L1144.82 11.3261L1119.39 0.956705L1091.88 17.3795L1049.52 17.4599L1015.63 17.5242L975.397 25.0418L956.32 17.6368L918.193 17.7092L880.055 11.8286L860.992 11.8648L818.654 25.3393L799.59 25.3755L761.438 12.0537L744.518 25.48L702.155 25.5604L689.446 25.5845L655.556 25.6488L655.601 49.4606L632.301 49.5048L617.485 55.4858L598.422 55.522L566.65 55.5823L589.98 71.9087L589.995 79.3499L526.436 72.0293L503.122 64.6324L481.954 72.1137L462.86 55.7793L439.577 64.753L420.497 55.8597L380.226 42.542L344.232 50.0515L308.223 50.1199L276.422 35.2979L261.624 50.2083C261.63 53.6808 255.717 63.0184 232.012 72.5881C208.307 82.1578 203.798 87.5241 204.507 89.0109L177.005 106.922L162.178 106.95L147.384 124.837L132.557 124.865L62.6836 138.392C44.0506 141.999 36.5455 131 35.1221 125.05Z" fill="white" stroke="white"/>
</svg>
