<svg width="42" height="42" viewBox="0 0 42 42" fill="none" xmlns="http://www.w3.org/2000/svg">
<path d="M15.3193 40.6356H27.3186C37.318 40.6356 41.3178 36.6358 41.3178 26.6364V14.637C41.3178 4.63761 37.318 0.637833 27.3186 0.637833H15.3193C5.31984 0.637833 1.32007 4.63761 1.32007 14.637V26.6364C1.32007 36.6358 5.31984 40.6356 15.3193 40.6356Z" stroke="white" stroke-linecap="round" stroke-linejoin="round"/>
<path d="M21.3189 27.6363C25.1847 27.6363 28.3185 24.5025 28.3185 20.6367C28.3185 16.7709 25.1847 13.6371 21.3189 13.6371C17.4531 13.6371 14.3193 16.7709 14.3193 20.6367C14.3193 24.5025 17.4531 27.6363 21.3189 27.6363Z" stroke="white" stroke-linecap="round" stroke-linejoin="round"/>
<path d="M32.5905 10.6373H32.6142" stroke="white" stroke-width="8" stroke-linecap="round" stroke-linejoin="round"/>
</svg>
